<svg xmlns="http://www.w3.org/2000/svg" xmlns:xlink="http://www.w3.org/1999/xlink" width="219" height="114"><defs><path id="a" d="M0 0h220v114H0z"/></defs><g fill="none" fill-rule="evenodd"><mask id="b" fill="#fff"><use xlink:href="#a"/></mask><use fill="#FFF" xlink:href="#a"/><g mask="url(#b)"><path fill="#E3E3E3" d="M161.6 175.9l22 14H156l5.6-14zm-52.4-9.6l16 10.7-5.3 12.8H97.6l.1-11c3.6-.2 7-2.5 8.8-6.6l2.7-5.8zM21 135.5c3 0 6 .9 8.7 2.6l32.7 20.4-3.8 7c-2.3 4-3.4 8.7-3.4 13.5v10.8H12.3l-10-51.4a31.7 31.7 0 01-.5-2.9zm43.3 24.2l28.3 17.7a9.1 9.1 0 004 1.3v11.1H57.4V179c0-4.3 1-8.5 3-12l3.9-7.3zM174.8 143l2.7 2.3a9 9 0 013 6.5l.2 3.6c0 3.4 1.7 6.5 4.2 8l12.6 8.4-2.7 7.5 1 .6 2.7-7.5 26.6 17.5h-36.8l-25.8-16.3 12.3-30.6zm-35 19.2l19.9 12.6-6.1 15.1h-32.5l5-12.1 1.4 1c.6.4 1.4.6 2.1.6.5 0 .9 0 1.3-.2a4.7 4.7 0 002.7-2.7l6.2-14.3zm91.2-22l5 7.7v35.4c0 3.7-2.5 6.6-5.5 6.6h-3.2L199 171.1l6-17.1c1.7.8 3.5 1.2 5.2 1.2 3 0 6-1.1 8.4-3.5l12.5-11.5zM-.4 135.6l.5 3.5 10 50.8H-8.6c-3 0-5.4-3-5.4-6.6v-47.7zm118 12.5l21.2 13.5-6.2 14.3c-.4 1-1.1 1.7-2 2-.9.3-1.8.2-2.6-.3l-18.3-12.3 7.8-17.2zm-44-5.5l33.7 22.6-2.7 5.8c-2.2 4.8-7 6.6-11 4.1l-28-17.5 8-15zM94 105.6a910 910 0 0073.9 48.8l-7.2 18L84 123.7zm88 19.4l17.8 24.5c1.3 1.7 2.7 3 4.3 4l-6 17-12.6-8.3a8.8 8.8 0 01-3.7-7l-.1-3.5c-.1-3-1.4-6-3.5-7.6l-2.8-2.4 6.6-16.7zm-99.2 1l32.9 20.8-7.8 17.1-33.5-22.5 8.4-15.4zm-48.4-9.8l37.5 25-8.2 15L30.9 136l3.4-19.7zm162.4-28.9l33 50.8-12.5 11.5c-4.8 4.5-11.8 3.7-15.8-1.8l-18.5-25.4a2361.4 2361.4 0 0013.8-35zm-64 20l15.1 10c.8.5 1.7.8 2.6.8.8 0 1.6-.2 2.3-.6l.8 3.3c.9 3.5 2.7 6.6 5.2 8.7l14.3 11.9-4.3 10.6a928.3 928.3 0 01-41.6-26.1l-1.4-1 7-17.6zm30.4-9a17.3 17.3 0 001.8 3.4l15.4 21.1-6.9 17.4-14-11.8c-2.3-2-4-4.8-4.8-8l-1-3.6a6.4 6.4 0 001.5-2zm-125.5-.8l.4.2 42.8 27-8.4 15.5-37.8-25.4zM10 92.7h11.6c5.2.1 10.3 1.6 15 4.2l-6.7 38.4a18.1 18.1 0 00-8.9-2.4h-6.6l-10-16.4L10 92.7zM206 76.6l29.8 45V135l-34.7-53.6c1.4-1.6 3-3.2 5-4.8zm-211.3 16h13L.3 124.2a35.5 35.5 0 00-1 8.8H-14v-5.1l8.8-35.2zM4 118.1l9 14.8H1.6a32.3 32.3 0 01.9-8L4 118zM103.5 88L131 106l-7 17.7A596 596 0 0195 103.4l8.4-15.5zM-14 92.5h7.7l-7.7 30.7V92.5zm52.8-72.9l.1 1.8c.3 3.6 1.3 7.1 3.1 10a3928 3928 0 0037.7 61.4A65 65 0 0092 104.2l-10 18.4-43-27.2-1-.6 1.1-6.1c.4-2.2 1.5-4 3-5.3L53 74.3l-.7-1.1-10.9 9.1c-1.7 1.5-2.9 3.6-3.3 6.1l-1 5.9c-4.9-2.7-10.2-4.1-15.5-4.1l-11-.1L16 67.5l9 .3h.3c2.4 0 4.8-1 6.7-2.8L42 56l-.7-1-10 9a9 9 0 01-6.3 2.6l-8.7-.3 2.3-10a28 28 0 00-3.4-21.1l-3-4.9 12-9.5 14.7-1.1zM179.7 61l15.6 24.2a16.7 16.7 0 00-1.3 2.7l-12.6 32.4-14.8-20.4a16 16 0 01-3-8.2L162 65.5l9.4-1.5c3-.4 5.8-1.4 8.4-3zm46.4.7L236 77v40.3L208 75a199 199 0 0118.2-13.4zm-66.3 4.1l1.7 26a20 20 0 001 5.1l-8.3 17.2c-1.2 2.5-3.8 3.4-5.9 2l-15-10 3.3-8.4c1.7-4.1 1.5-8.9-.5-12.7l-7.5-14.4 31.2-4.8zm-33.6 5.1l8 15.5c1.6 3 1.8 6.8.5 10.1l-3.4 8.4-27.2-18 2.1-3.9A24.5 24.5 0 01123 71.4l3.2-.5zM91.5 23.3l.2.2 27.2 6.5-1.5 18.8c-.2 2.9.4 5.8 1.6 8.3l6 11.3-2.3.4a26 26 0 00-16.6 10.4L93.3 63.3a6.6 6.6 0 01-.3-7.6l6.8-10-.9-.8-6.7 10a8.2 8.2 0 00.3 9.3l12.8 16-.9 1.3L93.2 102c-6-4.6-10.2-8.4-11.8-10.8-2.8-4.2-9.5-15.1-16.6-26.7l26.7-41.2zM1.2 67.1l12.4.4L8.3 90-4.5 90 1.2 67zm-4.3-25l3.8 6.4c1.8 3 2.3 6.7 1.4 10.2L-5.7 90l-8.3-.1V50.7l10.9-8.6zm192.6 9.4l15.3 23a75.6 75.6 0 00-5 4.9l-14.6-22.6a31.4 31.4 0 004.3-5.3zm46.4 4V75l-8.8-14a374.7 374.7 0 018.8-5.6zm-33.2-30.7l22 34.8c-6.5 4.3-12.9 9-18.1 13.4l-15.8-23.7.8-1.5 11-23zM121 30.5l17.3 4.2-1.3 9.5c-.4 3 0 6 1 8.8l4.7 12.7-15.5 2.4-6.4-12.4c-1-2-1.5-4.3-1.3-6.6l1.5-18.6zM10 31.6l3.3 5.1a25 25 0 013 18.8L14 66.2l-12.4-.4 1.7-6.7c1-3.9.3-8.1-1.6-11.4l-3.8-6.3 12.4-9.8zM139.5 35l27.7 6.6L178.3 59a21.8 21.8 0 01-7.2 2.5L144 65.5l-5-13c-.9-2.6-1.2-5.4-.8-8.1l1.2-9.5zM54.1 18.4c2.7-.2 5.4 1 7.3 3.4l15.5 19.7-13.5 20.8a9782.5 9782.5 0 01-19.6-32.4 19.5 19.5 0 01-2.7-8.7l-.1-1.8zM230.5-1.5a5 5 0 014 2.2l-8.4 14.8c-2.2 4-2.2 9.2 0 13.1l9.8 16.8v7a374.3 374.3 0 00-10.2 6.5l-22.4-35.4 12-25zm-73.6 0L180 36.1a22.6 22.6 0 002.4 4.7l5.6 8.6a29 29 0 01-4.2 5.3L147.5-1.5h9.4zM-14 24l10.2 17-10.2 8.2V24zM178 9.4L201 23l-11.3 23.5c0 .3-.2.5-.3.7l-5.3-8a20.9 20.9 0 01-3.1-8.6l-3-21zM235.3 2a7.6 7.6 0 01.7 3.2v38l-8.8-15.3a12 12 0 010-11.6zM57.9-1.5L89.6 22l-12 18.5L62.2 21C60 18.3 57 17 54 17.1l-13.2 1-1.4-19.6H58zm-68.6.5L9.5 30.6l-12.3 9.8L-14 21.8V5c0-2.7 1.4-5 3.3-6zm185-.5l4.5 32.4.2 1.3-20.8-33.7h16.2zm-35.1 0L160.9 32l-39.2-9.4 1.9-24h15.6zm-101.9 0l1.4 19.8-15 1.1-12.4 9.8L-8.3-1.5h45.6zm84.1 0l-1.8 23.6-23.7-5.7 2.5-3.8c2.3-3.5 3.2-8 2.7-12.3l-.3-1.8h20.6zm91.4 0l-11.2 23.2L178 7.8l-1.3-9.3h36.2zm-114.2 0L99 .7c.5 3.6-.3 7.4-2.2 10.2l-3 4.8L70.4-1.5h28.2z"/><path fill="#B4CE9B" d="M31.3 142.5L54 157.1c2.3 1.5 3 5 1.7 7.6L55 166a21.6 21.6 0 00-2.4 9.5l-.2 14.4h-37l-8.8-44.2c-.7-3.4 1.4-6.7 4.3-6.7h8c4.3-.1 8.6 1.2 12.4 3.6zm86.2 10.6c.4-1 1.5-1.5 2.4-1l14.4 9c.9.5 1.2 1.8.8 3l-3.2 7.5c-.8 2-2.9 2.8-4.6 1.8l-13-8.4c-.8-.6-1.2-2-.7-3zm78-55.8c.6-2 2.7-2.3 3.8-.7l25 38.3c.8 1.2.6 3-.4 3.9l-3.3 3.1c-1 1-2.4.7-3.2-.5l-23.1-37c-.5-.8-.6-1.8-.3-2.7zM91.1 30c1-1.4 2.3-2 3.8-1.8l9.6 2c2 .5 3.5 3 3.1 5.6-.3 2.3-2 4-4 3.9l-3-.2c-1.3 0-2.5.6-3.3 1.9L88.7 55a8.1 8.1 0 00.1 8.7l10.5 14.9a5.6 5.6 0 01.2 5.9l-5 8.1c-1.2 2.1-3.6 2.6-5.3 1.1L87 91.9c-2-1.8-3.9-4-5.3-6.4L70.8 67c-1.1-1.7-1-4 0-5.7zM178 66.3c.8-.2 1.7.1 2.3 1l10.4 16.2c.5.8.6 1.8.2 2.8l-1.5 4c-.7 1.8-2.8 2.1-3.8.5l-11.9-19.3c-1-1.6-.3-3.8 1.3-4.3z"/><path fill="#E5CBA8" d="M222.7 206.4L83.3 116.8a63.7 63.7 0 01-20-21.2L-.9-12.7l7-6.2L70.5 89.4a54.2 54.2 0 0017 18l139.3 89.7-4 9.3z"/><path fill="#FFEBD2" d="M223.2 205.3L83.8 115.6a62.6 62.6 0 01-19.6-20.8L0-13.5 5.3-18 69.5 90.2c4.5 7.6 10.5 14 17.4 18.4l139.3 89.7-3 7z"/></g></g></svg>