<svg xmlns="http://www.w3.org/2000/svg" width="103" height="20" fill="none"><g clip-path="url(#clip0)"><path fill="#fff" fill-rule="evenodd" d="M90 10A6.2 6.2 0 0196 4a6.2 6.2 0 016.3 6.1 6.2 6.2 0 01-6.2 6.2 6.2 6.2 0 01-6.2-6.2zm-15.4 0A6.2 6.2 0 0180.8 4a6.2 6.2 0 016.1 6.1 6.2 6.2 0 01-6.1 6.2 6.2 6.2 0 01-6.2-6.2" clip-rule="evenodd"/><mask id="a" width="15" height="14" x="58" y="3" maskUnits="userSpaceOnUse"><path fill="#fff" d="M58.6 3.2h13.7V17H58.6V3.2z"/></mask><g mask="url(#a)"><path fill="#00AA6C" fill-rule="evenodd" d="M58.6 10a6.8 6.8 0 016.8-6.8 6.8 6.8 0 016.9 6.9 6.8 6.8 0 01-6.9 6.8 6.8 6.8 0 01-6.8-6.8" clip-rule="evenodd"/></g><mask id="b" width="14" height="14" x="43" y="3" maskUnits="userSpaceOnUse"><path fill="#fff" d="M43.3 3.2H57V17H43.3V3.2z"/></mask><g mask="url(#b)"><path fill="#00AA6C" fill-rule="evenodd" d="M43.3 10a6.8 6.8 0 016.8-6.8 6.8 6.8 0 016.8 6.9 6.8 6.8 0 01-6.8 6.8 6.8 6.8 0 01-6.8-6.8" clip-rule="evenodd"/></g><mask id="c" width="14" height="14" x="28" y="3" maskUnits="userSpaceOnUse"><path fill="#fff" d="M28 3.2h13.6V17H28V3.2z"/></mask><g mask="url(#c)"><path fill="#00AA6C" fill-rule="evenodd" d="M28 10a6.8 6.8 0 016.8-6.8 6.8 6.8 0 016.8 6.9 6.8 6.8 0 01-6.8 6.8A6.8 6.8 0 0128 10" clip-rule="evenodd"/></g><mask id="d" width="15" height="14" x="73" y="3" maskUnits="userSpaceOnUse"><path fill="#fff" d="M74 3.2h13.6V17H74V3.2z"/></mask><g mask="url(#d)"><path fill="#00AA6C" fill-rule="evenodd" d="M85.9 10a5.1 5.1 0 00-5.1-5v10.2c2.8 0 5-2.3 5-5.1zm-12 0a6.8 6.8 0 016.9-6.8 6.8 6.8 0 016.8 6.9 6.8 6.8 0 01-6.8 6.8A6.8 6.8 0 0174 10" clip-rule="evenodd"/></g><mask id="e" width="14" height="14" x="89" y="3" maskUnits="userSpaceOnUse"><path fill="#fff" d="M89.3 3.2h13.6V17H89.3V3.2z"/></mask><g mask="url(#e)"><path fill="#00AA6C" fill-rule="evenodd" d="M101.2 10a5.1 5.1 0 00-5.1-5 5.1 5.1 0 00-5.1 5 5.1 5.1 0 0010.2 0zm-12 0a6.8 6.8 0 016.9-6.8 6.8 6.8 0 016.8 6.9 6.8 6.8 0 01-6.8 6.8 6.8 6.8 0 01-6.8-6.8" clip-rule="evenodd"/></g><path fill="#000" fill-rule="evenodd" d="M7.5 11c0 1-.9 1.8-2 1.8s-2-.8-2-1.9c0-1 1-1.9 2-1.9s2 .9 2 2zm9.2-2c-1.1 0-2 .9-2 2 0 1 .9 1.8 2 1.8s2-.8 2-1.9a2 2 0 00-2-1.9zm0 5.5c-2.1 0-3.8-1.6-3.8-3.6s1.7-3.6 3.8-3.6c2 0 3.7 1.6 3.7 3.6s-1.7 3.6-3.7 3.6zM11 10.8c0-2.4-1.8-4.4-4.2-5.3a11.3 11.3 0 018.4 0c-2.4 1-4.2 3-4.2 5.3zm-5.5 3.7c-2.1 0-3.8-1.6-3.8-3.6s1.7-3.6 3.8-3.6c2 0 3.7 1.6 3.7 3.6s-1.7 3.6-3.7 3.6zM20.4 7l1.8-2h-4A13 13 0 004 5H0l1.8 2a5.2 5.2 0 00-.4 7.5c2.1 2.2 5.6 2.3 7.9.4l1.8 1.8 1.8-1.9a5.7 5.7 0 003.8 1.4c3 0 5.5-2.3 5.5-5.3a5.2 5.2 0 00-1.8-4z" clip-rule="evenodd"/></g><defs><clipPath id="clip0"><path fill="#fff" d="M0 0h103v20H0z"/></clipPath></defs></svg>