<svg xmlns="http://www.w3.org/2000/svg" width="47" height="24">
    <title>dinners</title>
    <g fill="none" fill-rule="evenodd">
        <path fill="#1A1919" d="M8.72 14.62c0-.6-.32-.56-.62-.57v-.17l.8.01 1.15-.01c1.74 0 2.7 1.16 2.7 2.35 0 .67-.4 2.34-2.78 2.34L9 18.56l-.9.01v-.17c.4-.05.6-.06.62-.52v-3.26zm.65 3.16c0 .51.37.57.7.57 1.46 0 1.93-1.1 1.93-2.1 0-1.25-.8-2.16-2.1-2.16-.28 0-.4.02-.53.03v3.66zM12.98 18.4h.13c.18 0 .32 0 .32-.23v-1.82c0-.3-.1-.34-.35-.47v-.1a8.2 8.2 0 0 0 .84-.28c.03 0 .05.04.05.1v2.57c0 .23.14.23.33.23h.12v.17l-.7-.01-.74.01v-.17zm.72-3.94a.34.34 0 0 1-.33-.33c0-.17.16-.33.33-.33s.33.14.33.33c0 .18-.15.33-.33.33zM15.06 16.4c0-.26-.08-.32-.4-.45v-.13c.3-.1.57-.18.9-.32.01 0 .03.01.03.06V16c.39-.27.72-.5 1.17-.5.57 0 .77.41.77.94v1.73c0 .23.15.23.34.23h.12v.17l-.71-.01-.73.01v-.17h.12c.19 0 .32 0 .32-.23v-1.74c0-.38-.23-.57-.62-.57-.21 0-.55.18-.78.32v2c0 .22.15.22.34.22h.12v.17l-.71-.01-.73.01v-.17h.12c.2 0 .33 0 .33-.23V16.4M18.5 16.71v.4c.04.63.45 1.16.99 1.16.37 0 .66-.2.9-.45l.1.1c-.31.4-.7.75-1.24.75-1.07 0-1.29-1.03-1.29-1.46 0-1.32.89-1.71 1.36-1.71.54 0 1.13.34 1.14 1.05l-.01.12-.06.04h-1.9zm1.19-.21c.17 0 .19-.09.19-.17 0-.34-.21-.62-.59-.62-.4 0-.69.3-.77.79h1.17zM20.61 18.4h.18c.19 0 .32 0 .32-.23v-1.89c0-.2-.24-.24-.35-.3v-.1c.5-.2.76-.38.83-.38.04 0 .06.02.06.09v.6h.01c.17-.26.45-.7.86-.7.17 0 .38.12.38.36 0 .19-.12.35-.31.35-.21 0-.21-.16-.45-.16-.11 0-.49.15-.49.55v1.58c0 .23.14.23.32.23h.38v.17l-.94-.01-.8.01v-.17M23.2 17.64c.09.44.35.82.85.82.4 0 .54-.25.54-.48 0-.8-1.47-.54-1.47-1.62 0-.38.3-.86 1.05-.86.21 0 .5.06.76.2l.05.68h-.15c-.07-.43-.3-.67-.74-.67-.27 0-.52.16-.52.45 0 .78 1.56.54 1.56 1.6 0 .44-.36.91-1.16.91-.27 0-.58-.1-.82-.23l-.07-.77.12-.03M31.2 15.1h-.17c-.13-.8-.68-1.1-1.44-1.1-.77 0-1.9.5-1.9 2.12 0 1.36.98 2.34 2.01 2.34.67 0 1.22-.46 1.35-1.17l.16.04-.16.98c-.28.18-1.04.36-1.48.36-1.58 0-2.57-1.01-2.57-2.53 0-1.38 1.23-2.36 2.55-2.36.54 0 1.06.17 1.58.35l.07.96M31.44 18.4h.13c.19 0 .32 0 .32-.23v-3.74c0-.44-.1-.45-.35-.53v-.1c.26-.1.55-.21.69-.3l.15-.07c.04 0 .05.04.05.1v4.64c0 .23.15.23.34.23h.11v.17l-.7-.01-.74.01v-.17M35.76 18.2c0 .12.07.13.19.13h.27v.13c-.3.03-.84.17-.97.21l-.04-.02v-.54c-.4.33-.7.56-1.19.56-.36 0-.74-.23-.74-.8v-1.72c0-.18-.02-.34-.4-.38v-.12l.87-.05c.07 0 .07.05.07.2v1.73c0 .2 0 .78.59.78.23 0 .53-.18.81-.41v-1.81c0-.14-.32-.2-.56-.28v-.12c.6-.04.98-.1 1.04-.1.06 0 .06.06.06.13v2.48M37.1 15.98c.27-.23.63-.48 1-.48.78 0 1.25.68 1.25 1.41 0 .88-.65 1.76-1.6 1.76-.5 0-.77-.16-.94-.23l-.2.15-.15-.07c.07-.4.1-.79.1-1.2v-2.9c0-.43-.1-.44-.36-.52v-.1c.27-.1.55-.21.7-.3l.14-.07c.04 0 .06.04.06.1v2.45zm0 1.83c0 .26.24.69.69.69.72 0 1.02-.71 1.02-1.3 0-.73-.55-1.34-1.07-1.34-.25 0-.46.16-.64.32v1.63zM8.09 22.48h.05c.13 0 .27-.02.27-.2v-1.93c0-.19-.14-.2-.27-.2H8.1v-.11l.54.01.58-.01v.1h-.06c-.13 0-.27.02-.27.21v1.92c0 .2.14.21.27.21h.06v.11l-.58-.01-.54.01v-.11"/>
        <path fill="#1A1919" d="M9.2 22.6H8.08v-.14h.07c.13 0 .25-.01.26-.19v-1.92c0-.17-.13-.19-.26-.19h-.07v-.14h.02l.54.01.58-.01h.01v.14h-.07c-.13 0-.25.02-.25.2v1.91c0 .18.12.2.25.2h.07v.14h-.01zm-.01-.03v-.07h-.04c-.13 0-.28-.03-.28-.23v-1.92c0-.2.15-.22.28-.22h.04v-.08l-.56.02-.52-.02v.08h.03c.13 0 .29.02.29.22v1.92c0 .2-.16.23-.29.23h-.03v.07l.52-.01.56.01zM11.72 21.87v-1.38c0-.3-.2-.34-.31-.34h-.08v-.11l.5.01.46-.01v.1h-.05c-.16 0-.33.04-.33.47v1.66c0 .13 0 .26.02.37h-.14l-1.88-2.1v1.51c0 .32.06.43.34.43h.06v.11l-.47-.01-.5.01v-.11h.06c.25 0 .32-.17.32-.46v-1.55c0-.2-.16-.32-.33-.32h-.05v-.11l.42.01.33-.01 1.63 1.83"/>
        <path fill="#1A1919" d="M11.93 22.66h-.15l-1.86-2.07v1.46c0 .32.06.41.33.41h.08v.15h-.02l-.47-.02-.5.02h-.01v-.15h.07c.24 0 .3-.15.3-.44v-1.54c0-.2-.15-.32-.3-.32h-.07v-.14h.01l.42.01h.34l1.61 1.8V20.5c0-.3-.2-.33-.3-.33h-.1v-.14h.02l.5.01.46-.01h.02v.14h-.07c-.16 0-.31.02-.32.45v1.66c0 .13 0 .26.03.37v.02h-.02zm-.14-.03h.12a2.46 2.46 0 0 1-.02-.36v-1.66c0-.44.19-.48.35-.48h.03v-.08l-.43.02-.5-.02v.08h.07c.11 0 .33.05.33.36v1.38l-.01.01-.01.01-1.63-1.84-.33.02-.4-.02v.08h.03c.17 0 .35.13.35.35v1.54c0 .29-.08.48-.34.48h-.04v.07l.48-.01.46.01v-.07h-.05c-.29 0-.36-.13-.36-.45V20.5l1.9 2.13zm-.07-.76l.01-.01h-.01zm0 0v-.01h-.01zM12.84 20.22c-.28 0-.29.07-.34.33h-.11l.04-.3c.02-.11.02-.21.02-.32h.1c.02.11.11.1.21.1h1.89c.1 0 .19 0 .2-.1h.08l-.04.3v.3l-.11.04c-.01-.13-.03-.35-.27-.35h-.6v1.95c0 .28.12.31.3.31h.07v.11l-.6-.01-.62.01v-.11h.07c.2 0 .3-.02.3-.3v-1.96h-.6"/>
        <path fill="#1A1919" d="M14.28 22.6h-1.23v-.14h.08c.2 0 .29 0 .3-.29v-1.94h-.6v-.03h.62v1.97c0 .3-.12.33-.32.33h-.05v.07l.6-.01.58.01v-.07h-.05c-.18 0-.32-.05-.32-.33V20.2h.62c.24 0 .27.21.28.35l.08-.03a4.24 4.24 0 0 1 .05-.57h-.06c-.02.1-.12.1-.21.1h-1.9c-.1 0-.19 0-.22-.1h-.06c0 .1 0 .2-.02.3l-.04.29h.07c.05-.26.08-.34.36-.34v.03c-.27.01-.27.06-.33.33h-.14v-.01l.05-.31.02-.31v-.02h.11v.02c.03.09.1.09.2.09h1.9c.1 0 .17 0 .18-.1v-.02h.02l.1.02v.02l-.04.3v.3h-.02l-.13.05v-.02c0-.14-.02-.34-.25-.34h-.59v1.94c0 .27.12.3.29.3h.09v.14h-.02M15.05 22.48h.05c.13 0 .27-.02.27-.2v-1.93c0-.19-.14-.2-.27-.2h-.05v-.11l.91.01.94-.01v.56l-.1.03c-.02-.24-.07-.43-.45-.43h-.5v.96h.43c.22 0 .26-.13.29-.33h.1a8.34 8.34 0 0 0 0 .85l-.1.02c-.03-.22-.04-.36-.29-.36h-.44v.85c0 .24.21.24.45.24.44 0 .63-.03.74-.45l.1.03-.12.58-.99-.01-.97.01v-.11"/>
        <path fill="#1A1919" d="M17 22.6l-.98-.01-.97.02h-.01v-.15h.06c.13 0 .26-.01.26-.19v-1.92c0-.17-.13-.19-.26-.19h-.06v-.14h.01l.91.01.94-.01h.01v.02a4.47 4.47 0 0 0 .01.55v.02h-.01l-.13.04v-.02c-.02-.24-.05-.41-.43-.42h-.5v.93h.43c.2 0 .24-.11.27-.3v-.02h.14v.01a8.65 8.65 0 0 0 0 .85v.01h-.01l-.13.03v-.02c-.03-.22-.03-.34-.27-.35h-.42v.84c0 .22.19.22.43.22.44 0 .61-.02.72-.43v-.02h.02l.12.04V22c-.05.2-.1.39-.13.58v.02h-.01zm0-.03l.11-.55-.07-.02c-.1.41-.32.45-.75.44-.23 0-.46 0-.46-.25v-.87h.45c.26 0 .28.15.3.36l.08-.01a7.75 7.75 0 0 1 0-.82h-.08c-.02.19-.08.32-.3.32h-.45v-.99h.52c.38 0 .44.2.46.43l.08-.03a6.16 6.16 0 0 1 0-.53l-.93.02-.9-.02v.08h.04c.13 0 .29.02.29.22v1.92c0 .2-.16.23-.29.23h-.03v.07l.95-.01.97.01zM17.63 20.42c0-.26-.15-.27-.26-.27h-.07v-.11l.57.01.59-.01c.46 0 .87.12.87.64 0 .33-.22.53-.51.64l.62.94c.1.15.18.2.36.22v.11l-.36-.01-.34.01c-.29-.37-.53-.76-.76-1.19h-.25v.79c0 .28.14.29.3.29h.07v.11l-.63-.01-.53.01v-.11h.07c.13 0 .26-.06.26-.2v-1.86zm.46.85h.18c.37 0 .57-.14.57-.57 0-.32-.21-.53-.54-.53l-.2.01v1.1z"/>
        <path fill="#1A1919" d="M19.8 22.6h-.72c-.28-.37-.52-.76-.75-1.18h-.22v.77c0 .27.11.27.28.27h.09v.15h-.02l-.63-.02-.53.02h-.02v-.15h.09c.13 0 .24-.05.24-.18v-1.86c0-.26-.13-.25-.24-.26h-.09v-.14h.02l.57.01.59-.01c.46 0 .88.13.88.66 0 .33-.22.54-.5.65l.62.92c.1.15.16.2.34.21h.01v.15h-.01zm-1.7-1.21h.24c.25.43.49.82.76 1.18l.34-.01.34.01v-.08c-.17-.02-.25-.07-.35-.22l-.64-.95.02-.01c.29-.11.5-.3.5-.63 0-.5-.4-.63-.85-.63l-.6.02-.54-.02v.08h.05c.11 0 .27.02.27.3v1.85c0 .15-.14.22-.27.22h-.05v.07l.51-.01.61.01v-.07h-.05c-.16 0-.31-.02-.31-.31v-.8h.01zm0-.1h-.02v-1.12h.01c.05 0 .1-.02.21-.02.34 0 .55.22.55.55 0 .44-.2.59-.58.59h-.18zm.17-.03c.37 0 .55-.13.55-.56 0-.32-.2-.52-.52-.52-.1 0-.14.01-.19.02v1.06h.16zM22.28 21.87v-1.38c0-.3-.2-.34-.3-.34h-.09v-.11l.51.01.45-.01v.1h-.05c-.15 0-.33.04-.33.47v1.66c0 .13 0 .26.02.37h-.13l-1.89-2.1v1.51c0 .32.06.43.35.43h.06v.11l-.47-.01-.5.01v-.11h.05c.25 0 .33-.17.33-.46v-1.55c0-.2-.17-.32-.33-.32h-.05v-.11l.42.01.32-.01 1.63 1.83"/>
        <path fill="#1A1919" d="M22.5 22.66h-.16l-1.85-2.07v1.46c0 .32.05.41.33.41h.07v.15h-.01l-.47-.02-.5.02h-.02v-.15h.07c.24 0 .31-.15.31-.44v-1.55c0-.19-.16-.3-.31-.3h-.07v-.15h.02l.42.01h.34l1.6 1.8V20.5c0-.3-.2-.33-.3-.33h-.1v-.14h.02l.51.01.45-.01h.02v.14h-.07c-.15 0-.3.02-.31.45v1.66c0 .13 0 .26.02.37v.02h-.02zm-.14-.03h.12a2.5 2.5 0 0 1-.02-.36v-1.66c0-.44.18-.48.34-.48h.04v-.08l-.44.02-.5-.02v.08h.07c.11 0 .34.05.34.36v1.38l-.02.01v.01l-1.64-1.84-.32.02-.4-.02v.08h.03c.17 0 .34.13.34.34v1.55c0 .29-.08.48-.34.48h-.04v.07l.49-.01.45.01v-.07h-.04c-.3 0-.36-.13-.36-.45V20.5l1.9 2.13zm-.08-.76l.02-.01h-.02zm0 0v-.01zM23.44 22.07c-.03.12-.08.22-.08.28 0 .11.16.13.28.13h.04v.11a8.3 8.3 0 0 0-.84 0v-.11h.02c.14 0 .26-.08.32-.24l.58-1.68c.05-.13.12-.32.14-.45.12-.04.26-.11.33-.16h.06l.03.1.67 1.91.14.37c.04.1.12.15.24.15h.02v.11a10.4 10.4 0 0 0-1.05 0v-.11h.04c.08 0 .23-.01.23-.1 0-.05-.04-.15-.08-.27l-.14-.42h-.83l-.12.38zm.54-1.62h-.01l-.34 1.03h.68l-.33-1.03z"/>
        <path fill="#1A1919" d="M25.4 22.6l-.51-.01c-.18 0-.36 0-.55.02h-.02v-.15h.06c.08 0 .2-.02.2-.09.01-.04-.02-.14-.06-.25l-.14-.42h-.8l-.12.37c-.04.13-.08.22-.08.28 0 .1.13.11.26.11h.05v.15h-.01l-.45-.02c-.13 0-.26 0-.4.02v-.15h.03c.14 0 .25-.07.3-.22l.59-1.68c.05-.14.11-.32.14-.47.12-.04.27-.1.34-.15l.03-.01c.01 0 .03 0 .04.02l.03.1.68 1.9.13.38c.05.1.11.13.23.13h.04v.15h-.02zm-1.05-.03l.54-.01.49.01v-.07h-.01c-.13 0-.21-.05-.26-.16l-.13-.37-.68-1.92-.03-.09h-.03c-.07.05-.22.12-.33.15-.02.14-.08.32-.13.46l-.59 1.68a.35.35 0 0 1-.33.25v.07l.37-.01.43.01v-.07h-.02c-.12 0-.29-.02-.3-.15 0-.07.05-.16.09-.29h.01-.01l.12-.39h.85l.15.44c.04.11.07.21.07.26 0 .12-.16.12-.24.13h-.03v.07zm-.74-1.07l.35-1.07h.02v.02-.02l.35 1.07h-.72zm.04-.03h.64l-.32-.99-.32.99zm.31-1.02zM25.55 20.22c-.27 0-.28.07-.34.33h-.1c0-.1.03-.2.04-.3l.02-.32h.09c.03.11.12.1.22.1h1.88c.1 0 .2 0 .2-.1h.09l-.04.3v.3l-.12.04c0-.13-.02-.35-.27-.35h-.6v1.95c0 .28.13.31.3.31H27v.11l-.6-.01-.61.01v-.11h.07c.2 0 .3-.02.3-.3v-1.96h-.6"/>
        <path fill="#1A1919" d="M27 22.6h-1.24v-.14h.09c.2 0 .28 0 .29-.29v-1.94h-.59v-.03h.62v1.97c0 .3-.12.33-.32.33h-.05v.07l.6-.01.58.01v-.07h-.06c-.17 0-.31-.05-.31-.33V20.2h.61c.25 0 .28.21.29.35l.08-.03v-.29l.04-.28h-.06c-.01.1-.12.1-.2.1h-1.91c-.09 0-.18 0-.22-.1h-.06c0 .1 0 .2-.02.3 0 .1-.03.19-.04.29h.08c.05-.26.08-.34.35-.34v.03c-.27 0-.26.06-.32.33h-.15v-.01l.05-.31c.02-.1.02-.2.02-.31v-.02h.12v.02c.03.09.1.09.19.09h1.9c.1 0 .18 0 .19-.1v-.02h.01l.1.02v.02l-.04.3v.3h-.01l-.13.05v-.02c-.01-.14-.03-.34-.26-.34h-.58v1.94c0 .27.11.3.28.3h.09v.14h-.02M27.78 22.48h.06c.13 0 .27-.02.27-.2v-1.93c0-.19-.14-.2-.27-.2h-.06v-.11l.54.01.58-.01v.1h-.05c-.13 0-.27.02-.27.21v1.92c0 .2.14.21.27.21h.05v.11l-.58-.01-.54.01v-.11"/>
        <path fill="#1A1919" d="M28.9 22.6l-.58-.01-.54.02h-.01v-.15h.07c.13 0 .25-.01.25-.19v-1.92c0-.17-.12-.19-.25-.19h-.07v-.14h.01l.54.01.58-.01h.02v.14h-.07c-.14 0-.26.02-.26.2v1.91c0 .18.12.2.26.2h.07v.14h-.02zm-.02-.03v-.07h-.03c-.13 0-.29-.03-.29-.23v-1.92c0-.2.16-.22.29-.22h.03v-.08l-.56.02-.52-.02v.08h.04c.13 0 .28.02.28.22v1.92c0 .2-.15.23-.28.23h-.04v.07l.52-.01.56.01zM30.36 19.98c.78 0 1.4.48 1.4 1.26 0 .85-.6 1.4-1.38 1.4-.78 0-1.37-.52-1.37-1.3 0-.77.59-1.36 1.35-1.36m.05 2.5c.71 0 .84-.62.84-1.16 0-.53-.29-1.18-.9-1.18-.64 0-.83.57-.83 1.06 0 .66.3 1.28.9 1.28"/>
        <path fill="#1A1919" d="M29 21.33c0-.77.59-1.36 1.36-1.36V20c-.75 0-1.34.58-1.34 1.33 0 .78.59 1.3 1.36 1.3.77 0 1.36-.55 1.36-1.39 0-.77-.6-1.24-1.38-1.24v-.03c.78 0 1.41.48 1.42 1.27 0 .85-.62 1.42-1.4 1.42-.78 0-1.39-.53-1.39-1.33m.52-.13c0-.49.19-1.07.84-1.07.62 0 .91.66.91 1.2 0 .53-.12 1.17-.85 1.17v-.03c.7 0 .82-.61.82-1.15 0-.53-.28-1.16-.88-1.16-.63 0-.81.56-.81 1.04 0 .65.3 1.27.87 1.27v.03c-.6 0-.9-.64-.9-1.3M34.23 21.87v-1.38c0-.3-.2-.34-.32-.34h-.08v-.11l.52.01.45-.01v.1h-.06c-.15 0-.32.04-.32.47v1.66c0 .13 0 .26.02.37h-.14l-1.89-2.1v1.51c0 .32.07.43.35.43h.06v.11l-.47-.01-.5.01v-.11h.05c.26 0 .33-.17.33-.46v-1.55c0-.2-.17-.32-.33-.32h-.05v-.11l.42.01.33-.01 1.63 1.83"/>
        <path fill="#1A1919" d="M34.44 22.66h-.15l-1.86-2.07v1.46c0 .32.05.41.33.41h.08v.15h-.02l-.47-.02-.5.02h-.01v-.15h.06c.24 0 .31-.15.32-.44v-1.55c0-.19-.16-.3-.32-.3h-.06v-.15h.01l.42.01h.34l1.6 1.8V20.5c0-.3-.19-.33-.3-.33h-.1v-.14h.02l.52.01.45-.01h.01v.14h-.07c-.15 0-.3.02-.3.45v1.66l.01.37v.02h-.01zm-.14-.03h.12a2.6 2.6 0 0 1-.02-.36v-1.66c0-.44.18-.48.34-.48h.04v-.08l-.43.02-.5-.02v.08h.06c.12 0 .34.05.34.36v1.38l-.01.01-.01.01-1.63-1.84-.33.02-.4-.02v.08h.03c.17 0 .35.13.35.34v1.55c0 .29-.08.48-.35.48h-.03v.07l.48-.01.45.01v-.07h-.04c-.29 0-.36-.13-.36-.45V20.5l1.9 2.13zm-.07-.76v-.01zm-.01 0v-.01zM35.38 22.07c-.03.12-.08.22-.08.28 0 .11.16.13.28.13h.04v.11a8.3 8.3 0 0 0-.84 0v-.11h.02c.15 0 .27-.08.32-.24l.59-1.68c.04-.13.11-.32.13-.45.12-.04.27-.11.34-.16h.05l.03.1.68 1.91c.04.13.08.26.13.37.05.1.12.15.24.15h.03v.11a10.4 10.4 0 0 0-1.06 0v-.11h.04c.09 0 .23-.01.23-.1 0-.05-.03-.15-.07-.27l-.15-.42h-.83l-.12.38zm.54-1.62l-.35 1.03h.69l-.34-1.03z"/>
        <path fill="#1A1919" d="M37.33 22.6h-1.06v-.14h.05c.09 0 .21-.02.21-.09 0-.04-.03-.14-.07-.25l-.14-.42h-.8l-.12.37c-.04.13-.08.22-.08.28 0 .1.14.11.26.11h.05v.15h-.01l-.44-.02c-.13 0-.27 0-.4.02h-.01v-.15h.03c.14 0 .25-.07.3-.22l.6-1.68.14-.47a2 2 0 0 0 .33-.15l.03-.01c.01 0 .03 0 .04.02l.04.1.67 1.9.14.38c.04.1.1.13.22.13h.04v.15h-.02zm-1.03-.03l.53-.01.49.01v-.07c-.13 0-.22-.05-.26-.16l-.14-.37-.67-1.92a3.62 3.62 0 0 1-.03-.09h-.02-.02a1.4 1.4 0 0 1-.32.15c-.02.14-.1.32-.14.46l-.58 1.68a.35.35 0 0 1-.34.25v.07l.38-.01.42.01v-.07h-.02c-.12 0-.29-.02-.3-.15 0-.07.05-.16.09-.29h.01-.01l.12-.39h.85l.15.44c.04.11.07.21.07.26 0 .12-.16.12-.24.13h-.02v.07zm-.75-1.07l.35-1.07h.02v.02-.02h.01l.35 1.07h-.73zm.04-.03h.64l-.31-.98-.33.98zm.31-1.02h.01zM38.26 22.23c0 .15.1.2.22.2.15.02.31.02.48 0 .15-.02.28-.1.35-.2.06-.08.1-.18.11-.26h.11l-.14.62-.96-.01-.97.01v-.11h.05c.14 0 .28-.02.28-.25v-1.88c0-.19-.14-.2-.28-.2h-.05v-.11l.58.01.56-.01v.1h-.1c-.13 0-.24.01-.24.2v1.9"/>
        <path fill="#1A1919" d="M39.4 22.6h-1.95v-.14h.06c.14 0 .26 0 .26-.23v-1.88c0-.17-.12-.19-.26-.19h-.06v-.14h.01l.58.01.56-.01h.01v.14h-.1c-.15 0-.23 0-.24.18v1.9c0 .13.1.16.2.18a2.97 2.97 0 0 0 .49 0c.15-.02.27-.11.34-.2a.82.82 0 0 0 .1-.26H39.56v.01l-.14.62v.02h-.02zm-.02-.03c.04-.2.1-.39.13-.59h-.07a.83.83 0 0 1-.12.26c-.07.1-.2.19-.36.2a2.8 2.8 0 0 1-.49.01c-.12-.01-.23-.06-.23-.22v-1.89c0-.2.13-.21.27-.21h.07v-.08l-.54.02-.56-.02v.08h.03c.13 0 .3.02.3.22v1.88c0 .24-.17.27-.3.27h-.03v.07l.95-.01.95.01zM39.48 19.93c.23 0 .39.17.39.39 0 .21-.16.38-.39.38a.38.38 0 0 1-.38-.38c0-.22.16-.39.38-.39zm0 .7c.18 0 .31-.15.31-.31a.31.31 0 0 0-.3-.32c-.18 0-.31.15-.31.32 0 .16.13.31.3.31zm-.19-.1v-.03c.05 0 .06 0 .06-.03v-.29c0-.04 0-.05-.06-.05v-.02h.2c.07 0 .13.03.13.1 0 .06-.04.1-.09.12l.06.09a.4.4 0 0 0 .09.09v.01h-.08c-.03 0-.06-.07-.13-.18h-.05v.13c0 .03.01.03.06.03v.02h-.19zm.13-.21h.05c.06 0 .08-.04.08-.1 0-.06-.04-.08-.08-.08h-.05v.18z"/>
        <path fill="#FFFFFE" d="M16.63 7.12a6.2 6.2 0 1 1 12.4 0 6.2 6.2 0 0 1-12.4 0"/>
        <path fill="#0069AA" d="M26.58 7c0-1.59-1-2.94-2.4-3.48v6.95A3.73 3.73 0 0 0 26.59 7zm-5.06 3.47V3.52a3.73 3.73 0 0 0 0 6.95zm1.33-9.35a5.88 5.88 0 1 0 0 11.75 5.88 5.88 0 0 0 0-11.75zm-.01 12.3a6.43 6.43 0 0 1-6.47-6.36A6.33 6.33 0 0 1 22.84.6h1.66c3.51 0 6.71 2.65 6.71 6.47 0 3.5-3.2 6.37-6.7 6.37h-1.67z"/>
    </g>
</svg>
