<svg xmlns="http://www.w3.org/2000/svg" width="47" height="24">
    <title>jcb</title>
    <g fill="none" fill-rule="evenodd">
        <path fill="#54B230" d="M30.38 11.91H32.24a1.05 1.05 0 0 1 .2.02h.02a.75.75 0 0 1 .24.1.84.84 0 0 1 .31 1.1.82.82 0 0 1-.55.44h-.01a.4.4 0 0 1-.05 0 1.3 1.3 0 0 1-.16.02H30.38v-1.68zm2.48-1.9a.83.83 0 0 1-.1.59.74.74 0 0 1-.52.35.5.5 0 0 1-.06 0 1.7 1.7 0 0 1-.12.01H30.37V9.41H32.1a1.31 1.31 0 0 1 .15.02.77.77 0 0 1 .37.17.76.76 0 0 1 .22.3l.03.1zm3.81-8.04h.01v15.92a3.22 3.22 0 0 1-.75 2.06l-.03.03-.03.04a3.23 3.23 0 0 1-.06.06l-.03.04-.03.03-.03.03-.03.03a3.26 3.26 0 0 1-.19.16l-.03.02-.03.03-.03.02-.03.02-.03.02-.03.03-.03.02-.03.02-.03.02-.04.02a2.95 2.95 0 0 1-.06.04l-.03.01-.03.02-.03.02-.03.02-.03.01-.03.02-.03.01-.03.02-.03.01-.03.02-.04.01-.03.02h-.03l-.03.02-.03.01-.03.02h-.03l-.03.02h-.03l-.03.02-.03.01-.03.01-.03.01h-.03l-.04.02h-.03l-.03.01-.03.01-.03.01h-.03l-.03.01-.03.01h-.03l-.03.01h-.03l-.03.01H34l-.04.01h-.03l-.03.01h-.03-.03l-.03.01h-.06l-.03.01H28.83v-6.49H34.06l.03-.01h.06l.03-.01h.03l.03-.01h.03l.03-.01h.03l.03-.02h.07l.03-.02a2.35 2.35 0 0 0 .12-.03l.03-.01a1.97 1.97 0 0 0 .1-.03l.02-.01.03-.02h.03a1.96 1.96 0 0 0 .68-.5 1.48 1.48 0 0 0 .28-.54 1.44 1.44 0 0 0-.28-1.25 1.47 1.47 0 0 0-.46-.37 1.68 1.68 0 0 0-.22-.1l-.03-.01-.03-.01-.03-.01a2.72 2.72 0 0 0-.12-.05h-.03l-.03-.01a2.36 2.36 0 0 0-.16-.04h-.03l-.03-.01h-.03l-.03-.01h-.03l-.03-.01h-.03l-.03-.01h-.09l-.03-.01h-.03v-.04H34l.03-.01h.03l.03-.01h.03l.03-.01.03-.01h.03a2.16 2.16 0 0 0 .62-.29 1.56 1.56 0 0 0 .4-.42 1.36 1.36 0 0 0 .18-.87 1.41 1.41 0 0 0-.18-.56 1.28 1.28 0 0 0-.44-.43 1.57 1.57 0 0 0-.4-.2 2.18 2.18 0 0 0-.09-.03h-.03a2.26 2.26 0 0 0-.06-.02l-.03-.01a2.26 2.26 0 0 0-.06-.02h-.06l-.03-.01H34l-.04-.01h-.03l-.03-.01h-.03l-.03-.01h-.06l-.03-.01h-.12l-.03-.01H28.83V5.14a3.2 3.2 0 0 1 .55-1.8l.04-.04a3.36 3.36 0 0 1 .06-.09l.03-.04.03-.03c0-.02.02-.03.03-.04l.03-.04.03-.03.03-.04a3.41 3.41 0 0 1 .1-.1l.02-.02.03-.03.04-.03.03-.03.03-.03a3.4 3.4 0 0 1 .12-.1l.03-.02.03-.03a3.32 3.32 0 0 1 .06-.04l.03-.03c.01 0 .02 0 .03-.02l.04-.02.03-.02a3 3 0 0 1 .03-.02l.03-.02s.02 0 .03-.02l.03-.01.03-.02.03-.02.03-.02.03-.01.03-.02.03-.01.03-.02.03-.01.04-.02.03-.01.03-.02.03-.01.03-.01.03-.01.03-.02h.03l.03-.02.03-.01.03-.01.03-.01.03-.01.04-.01.03-.01.03-.01h.03l.03-.02h.03l.03-.01.03-.01h.03l.03-.01.03-.01h.03l.03-.01h.03l.04-.01h.03l.03-.01h.06l.03-.01h.06l.03-.01h.12l.04-.01H36.67z"/>
        <path fill="#006CB9" d="M11.2 13.02V5.15a3.2 3.2 0 0 1 .56-1.8l.03-.04.03-.04.03-.04.03-.04.03-.04a3.06 3.06 0 0 1 .07-.08l.03-.03.03-.03c0-.02.02-.03.03-.04a3.06 3.06 0 0 1 .06-.06l.03-.03.03-.03.03-.03.03-.03.03-.03.03-.02.03-.03a2.95 2.95 0 0 1 .16-.12l.03-.02a2.91 2.91 0 0 1 .12-.09c.01 0 .02 0 .03-.02l.03-.01.03-.02.03-.02.03-.02.04-.02.03-.01.03-.02.03-.02.03-.01.03-.02.03-.01.03-.02.03-.01.03-.01.03-.02.03-.01.03-.01.03-.02h.03l.04-.02.03-.01.03-.01.03-.01.03-.01.03-.01.03-.01h.03l.03-.02h.03l.03-.01.03-.01h.03l.03-.02h.07l.03-.01.03-.01h.03l.03-.01h.03l.03-.01H14l.03-.01h.06l.03-.01h.13l.03-.01H19.06v15.92a3.22 3.22 0 0 1-.73 2.03l-.03.04-.03.04-.03.03-.03.03-.04.04a3.25 3.25 0 0 1-.09.09l-.03.03-.03.03-.03.02-.03.03-.03.03-.03.02-.03.03-.03.02-.03.02-.03.03-.03.02-.04.02-.03.02-.03.03s-.02 0-.03.02c0 0-.02 0-.03.02l-.03.01-.03.02-.03.02-.03.02-.03.02a2.77 2.77 0 0 1-.06.03l-.03.02-.03.01-.04.02-.03.01-.03.02-.03.01-.03.02-.03.01-.03.01-.03.02h-.03l-.03.02-.03.01-.03.01-.03.01-.03.01-.03.01-.04.01-.03.01-.03.01-.03.01h-.03l-.03.02h-.03l-.03.01h-.03l-.03.02h-.06l-.03.01-.03.01h-.04l-.03.01h-.06l-.03.01h-.03l-.03.01h-.09l-.03.01h-.19H11.2v-6.7l.07.01.03.01h.03l.03.02h.03l.03.01h.03l.04.01.03.01h.03l.03.01.03.01h.03l.03.01h.03l.03.02h.06l.03.01.03.01h.03l.03.01h.04l.03.01H12l.03.01h.03l.03.01h.03l.03.01.03.01h.03l.03.01h.06l.03.01h.04l.03.01h.03l.03.01h.03l.03.01h.03l.03.01h.06l.03.01h.03l.03.01h.06l.04.01h.06l.03.01h.06l.03.01h.06l.03.01h.06l.03.01h.1l.03.01h.09l.03.01h.09l.03.01h.12l.04.01h.18l.03.01H14.25l.03.01H14.95l.03-.01h.16l.03-.01h.09l.03-.01h.09l.03-.01h.06l.04-.01h.06l.03-.01h.06l.03-.01h.03l.03-.01h.03l.03-.01h.03l.03-.01h.03l.03-.01h.04l.03-.01h.03l.03-.01h.03l.03-.01.03-.01h.03l.03-.01.03-.01h.03l.03-.02h.03l.03-.01h.03l.04-.02h.03l.03-.01.03-.01.03-.01.03-.01.03-.01.03-.01.03-.01.03-.01.03-.01.03-.01.03-.01.03-.02h.04l.03-.02.03-.01.03-.01.03-.02.03-.01.03-.01.03-.02.03-.01.03-.02.03-.01.03-.02.03-.02a2.9 2.9 0 0 0 .1-.05l.03-.02.03-.02.03-.02.03-.02.03-.02.03-.02.03-.02.03-.02a2.27 2.27 0 0 0 .1-.08l.02-.03.03-.02.04-.03a2.01 2.01 0 0 0 .06-.06l.03-.03c0-.02.02-.03.03-.04a1.98 1.98 0 0 0 .46-.9 2.5 2.5 0 0 0 .07-.67v-3.7H15.7l-.02 3.7a1.94 1.94 0 0 1-.13.67 1.46 1.46 0 0 1-.43.56 1.55 1.55 0 0 1-.56.27h-.03a1.86 1.86 0 0 1-.18.04h-.03a2.28 2.28 0 0 1-.06.02h-.1a2.35 2.35 0 0 1-.06.01h-.03H14h-.37l-.03-.01h-.09l-.03-.01h-.06l-.03-.01h-.06l-.03-.01h-.04l-.03-.01h-.03l-.03-.01h-.03l-.03-.01h-.03l-.03-.01h-.03l-.03-.01h-.03l-.03-.02h-.06l-.03-.01-.04-.01h-.03l-.03-.02h-.03l-.03-.01h-.03l-.03-.02h-.03l-.03-.01-.03-.01-.03-.01h-.03l-.03-.02h-.03l-.03-.02h-.04l-.03-.02h-.03l-.03-.01-.03-.01-.03-.01-.03-.02h-.03l-.03-.02h-.03l-.03-.02H12l-.03-.02-.03-.01-.04-.01-.03-.02h-.03l-.03-.02-.03-.01-.03-.01-.03-.02h-.03l-.03-.02-.03-.01-.03-.02-.03-.01-.03-.01-.03-.02-.03-.01-.04-.01-.03-.02-.03-.01-.03-.02-.03-.01-.03-.01-.03-.02-.07-.03z"/>
        <path fill="#E10238" d="M20.08 9.27l-.06.05V5.15a3.2 3.2 0 0 1 .55-1.8l.03-.04.03-.04.03-.04.04-.04c0-.02.02-.03.03-.04a3.1 3.1 0 0 1 .06-.07c0-.02.02-.03.03-.04l.03-.03a3.13 3.13 0 0 1 .12-.13l.03-.03.03-.03.03-.03.03-.03.03-.02.04-.03a3.7 3.7 0 0 1 .27-.2l.03-.03c.01 0 .02 0 .03-.02l.03-.01.03-.02.04-.02.03-.02.03-.02.03-.01.03-.02.03-.02.03-.01.03-.02.03-.01.03-.02.03-.01.03-.01.03-.02.03-.01.03-.01.04-.02h.03l.03-.02.03-.01.03-.01.03-.01.03-.01.03-.01.03-.01h.03l.03-.02h.03l.03-.01.03-.01h.04l.03-.02h.06l.03-.01.03-.01h.03l.03-.01h.03l.03-.01h.06l.03-.01h.06l.04-.01h.12l.03-.01H27.87v15.92a3.21 3.21 0 0 1-.52 1.74c0 .02-.02.03-.03.05a3.33 3.33 0 0 1-.15.2l-.03.04-.03.04a3.1 3.1 0 0 1-.03.04l-.03.03-.03.03-.03.04-.03.03a3.17 3.17 0 0 1-.1.09l-.03.03-.03.02-.03.03-.03.03-.03.02-.03.03-.03.02-.03.02-.03.03-.03.02-.03.02-.03.02-.04.03s-.02 0-.03.02c0 0-.02 0-.03.02l-.03.01-.03.02-.03.02-.03.02-.03.02-.03.01-.03.02-.03.02-.03.01-.03.02-.03.01-.04.02-.03.01-.03.02-.03.01-.03.01-.03.02h-.03l-.03.02-.03.01-.03.01-.03.01-.03.01-.03.01-.03.01-.03.01-.04.01-.03.01h-.03l-.03.02h-.03l-.03.01h-.03l-.03.02h-.06l-.03.01-.03.01h-.03l-.03.01h-.07l-.03.01h-.03l-.03.01h-.06-.03l-.03.01H20.02v-7.35a2.95 2.95 0 0 0 .12.1l.03.03.03.02a3.15 3.15 0 0 0 .07.05l.03.02.03.02.03.02.03.02.03.02.03.02.03.01.03.02.03.02.03.02.03.01.03.02.03.01.04.02.03.02.03.01.03.01.03.02.03.01.03.02.03.01.03.01.03.02H21l.03.02.03.01.03.01.03.02h.04l.03.02h.03l.03.02.03.01.03.01.03.01.03.01.03.01h.03l.03.02h.03l.03.02h.03l.04.01.03.01h.03l.03.02h.03l.03.01h.03l.03.02h.03l.03.01h.03l.03.01.03.01h.03l.03.01h.04l.03.01.03.01h.03l.03.01h.03l.03.01h.03l.03.01h.03l.03.01h.06l.03.01h.04l.03.01h.06l.03.01h.03l.03.01h.06l.03.01h.09l.03.01h.1l.03.01h.09l.03.01h.18l.03.01h.28l.03.01H24.38l.03-.01h.18l.03-.01h.13l.03-.01h.09l.03-.01h.06l.03-.01h.06l.03-.01h.06l.04-.01h.06l.03-.01h.06l.03-.01h.03l.03-.01h.06l.03-.01h.03l.03-.01h.04l.03-.01h.03l.03-.01h.03l.03-.01h.03l.03-.01h.03l.03-.01h.03l.03-.01h.03l.03-.01h.03l.04-.01h.03l.03-.01h.03l.03-.01.03-.01h.03l.03-.01h.03l.03-.01h.03l.03-.02h.06l.04-.01.03-.01h.03l.03-.01.03-.01h.03l.03-.01.03-.01h.03l.03-.01.03-.01h.03l.03-.01.03-.01h.03l.04-.02h.03v-1.35l-.03.01-.04.02-.03.01-.03.02-.03.01-.03.02-.03.01-.03.02-.03.01-.03.02h-.03l-.03.02-.03.02-.03.01-.03.01-.03.02h-.04l-.03.02-.03.01-.03.02h-.03l-.03.02-.03.01-.03.01-.03.02h-.03l-.03.02-.03.01-.03.01-.03.01-.04.01-.03.01-.03.01-.03.01-.03.01-.03.01-.03.01-.03.01h-.03l-.03.02h-.03l-.03.02h-.03l-.03.01-.03.01h-.04l-.03.02h-.03l-.03.01h-.03l-.03.01-.03.01h-.03l-.03.01-.03.01h-.03l-.03.01h-.03l-.03.01-.04.01h-.03l-.03.01h-.03l-.03.01H25l-.03.01h-.06l-.03.01h-.06l-.03.01h-.06l-.04.01h-.06l-.03.01h-.12l-.03.01h-.19-.15-.03-.15l-.03-.01h-.06l-.04-.01h-.06l-.03-.01h-.03l-.03-.01h-.03l-.03-.01h-.03l-.03-.01-.03-.01h-.03l-.03-.02h-.03l-.03-.01-.04-.01a2.26 2.26 0 0 1-.12-.04h-.03l-.03-.02-.03-.01-.03-.01-.03-.01-.03-.02-.03-.01-.03-.01-.03-.02a2.3 2.3 0 0 1-.07-.03l-.03-.02-.03-.01-.03-.02a2.28 2.28 0 0 1-.06-.04l-.03-.02-.03-.02a1.9 1.9 0 0 1-.03-.02l-.03-.02-.03-.03-.03-.02-.03-.03a1.83 1.83 0 0 1-.56-.81 2.2 2.2 0 0 1-.12-.58 2.99 2.99 0 0 1 .15-1.21 2.06 2.06 0 0 1 .43-.65 1.96 1.96 0 0 1 .07-.06l.03-.03.03-.02a2.05 2.05 0 0 1 .06-.05l.03-.02.03-.02.03-.03.03-.01a1.88 1.88 0 0 1 .06-.04l.03-.02.03-.02.03-.01a2.31 2.31 0 0 1 .07-.03l.03-.02.03-.01.03-.02.03-.01.03-.01.03-.01.03-.02h.03l.03-.02a2.7 2.7 0 0 1 .1-.03h.02l.04-.01.03-.01h.03l.03-.02h.03l.03-.01h.03l.03-.01h.03l.03-.01h.03l.03-.01h.03l.03-.01h.07l.03-.01h.09l.03-.01H24.62l.03.01h.1l.03.01h.06l.03.01h.03l.03.01h.03l.03.01h.06l.03.01h.03l.03.01.04.01h.03l.03.01h.03l.03.01h.03l.03.02h.06l.03.02h.03l.03.01h.03l.03.02h.04l.03.01.03.01h.03l.03.02h.03l.03.01.03.01.03.01.03.01.03.01.03.01.03.01.03.01.03.01.04.01.03.01.03.01.03.02h.03l.03.02.03.01.03.01.03.01.03.02h.03l.03.02.03.01.03.02h.04l.03.02.03.01.03.02.03.01.03.02.03.01.03.01.03.02.03.01.03.02.03.01.03.02.03.01.03.02.04.01.03.02V8.68h-.03l-.04-.02h-.03l-.03-.01h-.03l-.03-.01-.03-.01h-.03l-.03-.01-.03-.01h-.03l-.03-.01-.03-.01h-.03l-.03-.01-.03-.01h-.04l-.03-.01h-.03l-.03-.02h-.06l-.03-.01h-.03l-.03-.01-.03-.01h-.03l-.03-.01h-.03l-.03-.01h-.04L26 8.47h-.03l-.03-.01h-.03l-.03-.01-.03-.01h-.03l-.03-.01h-.06l-.03-.01h-.03l-.03-.01h-.03l-.04-.01h-.03l-.03-.01h-.06l-.03-.01h-.03l-.03-.01h-.06l-.03-.01h-.03l-.03-.01h-.07l-.03-.01h-.06l-.03-.01h-.09l-.03-.01h-.06l-.03-.01h-.13l-.03-.01h-.15l-.02-.01h-.26l-.03-.01H23.27l-.03.01h-.15l-.03.01h-.09l-.03.01h-.1l-.03.01h-.06l-.03.01h-.06l-.03.01h-.06l-.03.01h-.06l-.04.01h-.03l-.03.01h-.03l-.03.01h-.03l-.03.01h-.03l-.03.01h-.03l-.03.01h-.03l-.03.01h-.03l-.04.01-.03.01h-.03l-.03.01-.03.01h-.03l-.03.01-.03.01h-.03l-.03.01-.03.01-.03.01h-.03l-.03.02h-.03l-.04.01-.03.01-.03.01h-.03l-.03.02h-.03l-.03.02h-.03l-.03.02h-.03l-.03.02h-.03l-.03.02h-.03l-.04.02-.03.01-.03.01-.03.02H21l-.03.02-.03.01-.03.02-.03.01-.03.01-.03.02-.03.01-.03.02-.03.01-.03.02-.04.01-.03.02-.03.01-.03.02-.03.02-.03.02-.03.01-.03.02-.03.02-.03.02-.03.02-.03.02-.03.02-.03.02a3.62 3.62 0 0 0-.07.04l-.03.03a3.24 3.24 0 0 0-.09.07z"/>
    </g>
</svg>
