<svg xmlns="http://www.w3.org/2000/svg" width="47" height="24">
    <title>maestro</title>
    <g fill="none" fill-rule="evenodd">
        <path fill="#ED1C24" d="M23 2.8A11.08 11.08 0 0 0 16.16.45 11.03 11.03 0 0 0 5.08 11.43c0 6.07 4.95 10.98 11.08 10.98 2.58 0 4.95-.87 6.84-2.35-2.57-2 .3-5.07.3-8.58 0-3.5-2.87-6.68-.3-8.68z"/>
        <path fill="#009BE5" d="M23 2.8c2.57 2 .47 5.12.47 8.63 0 3.5 2.1 6.63-.47 8.63a11.08 11.08 0 0 0 6.85 2.35c6.12 0 11.07-4.91 11.07-10.98S35.97.45 29.85.45c-2.59 0-4.96.87-6.85 2.35z"/>
        <path fill="#6D69C3" d="M27.23 11.43c0-3.5-1.66-6.63-4.23-8.63a10.93 10.93 0 0 0 0 17.26c2.57-2 4.23-5.12 4.23-8.63z"/>
    </g>
</svg>
