<svg xmlns="http://www.w3.org/2000/svg" width="64" height="11" fill="none">
  <path fill="#FF5F00" d="M10.952 1.24H6.29v8.378h4.662V1.24Z"/>
  <path fill="#EB001B" d="M6.586 5.43A5.319 5.319 0 0 1 8.62 1.24a5.328 5.328 0 1 0 0 8.378A5.319 5.319 0 0 1 6.586 5.43Z"/>
  <path fill="#F79E1B" d="M17.242 5.43A5.329 5.329 0 0 1 8.62 9.617a5.329 5.329 0 0 0 0-8.378 5.328 5.328 0 0 1 8.62 4.19ZM16.733 8.731V8.56h.07v-.035h-.177v.035h.07v.171h.037Zm.342 0v-.207h-.054l-.062.143-.062-.143h-.054v.207h.038v-.156l.058.135h.04l.058-.135v.156h.038Z"/>
  <path fill="#000" d="M22.669 10.788h-.198V0h.198v10.788ZM28.13 8.731h-.554V2.377h.553V8.73Zm4.04-6.354c.485-.007.968.068 1.429.222.4.135.768.351 1.08.636.3.279.533.62.685 1 .321.85.321 1.788 0 2.637-.152.38-.386.722-.685 1.001a3.04 3.04 0 0 1-1.08.636c-.46.154-.944.23-1.43.222h-2.32V2.377h2.32Zm-1.767.526v5.302h1.766a3.66 3.66 0 0 0 1.226-.189c.332-.112.637-.294.894-.533.244-.233.432-.519.549-.835a3.31 3.31 0 0 0 0-2.188 2.244 2.244 0 0 0-.55-.837 2.442 2.442 0 0 0-.893-.534 3.701 3.701 0 0 0-1.226-.186h-1.766Zm11.638-.599c.266 0 .531.03.79.09.248.06.488.147.715.262.218.11.42.248.604.41.178.16.333.343.46.545l-.463.309a2.24 2.24 0 0 0-.388-.45 2.436 2.436 0 0 0-1.076-.555 2.733 2.733 0 0 0-.642-.075 2.818 2.818 0 0 0-1.055.195 2.516 2.516 0 0 0-1.416 1.412 3.072 3.072 0 0 0 0 2.215 2.516 2.516 0 0 0 1.416 1.412c.336.131.694.197 1.055.194.216 0 .43-.024.64-.072a2.472 2.472 0 0 0 1.074-.554c.15-.133.28-.286.388-.454l.453.331a2.69 2.69 0 0 1-.47.536 2.929 2.929 0 0 1-.598.404c-.224.114-.461.2-.706.256a3.548 3.548 0 0 1-2.072-.152 3.112 3.112 0 0 1-1.033-.67 3.07 3.07 0 0 1-.683-1.025 3.609 3.609 0 0 1 0-2.626c.156-.385.388-.735.683-1.028.296-.29.648-.517 1.033-.67.41-.162.85-.244 1.291-.24ZM46.312 5.2a1.633 1.633 0 0 1 .667-.615 1.85 1.85 0 0 1 .418-.145 2.133 2.133 0 0 1 1.166.073c.212.074.406.19.57.342a1.5 1.5 0 0 1 .368.542c.089.228.133.47.13.715v2.62h-.518v-2.46a1.752 1.752 0 0 0-.091-.582 1.162 1.162 0 0 0-.268-.438 1.177 1.177 0 0 0-.431-.274 1.65 1.65 0 0 0-.581-.096 1.523 1.523 0 0 0-.56.102 1.34 1.34 0 0 0-.759.74 1.446 1.446 0 0 0-.11.574v2.433h-.518V2.195h.517V5.2Zm6.396-.808c.272-.002.542.052.792.161.239.104.454.258.63.45.183.2.325.435.42.69a2.496 2.496 0 0 1 .15 1.091H51.12c.013.23.07.454.166.663a1.523 1.523 0 0 0 .872.799c.196.07.404.105.614.104.277.005.55-.051.804-.163.237-.11.454-.26.64-.445l.276.354a2.54 2.54 0 0 1-.415.34 2.212 2.212 0 0 1-.878.332 3.299 3.299 0 0 1-.459.031 2.26 2.26 0 0 1-.862-.16 2.003 2.003 0 0 1-1.126-1.147 2.422 2.422 0 0 1-.159-.894 2.388 2.388 0 0 1 .162-.887 2.01 2.01 0 0 1 1.117-1.155c.264-.11.55-.166.837-.164Zm-.01.458a1.495 1.495 0 0 0-1.071.42 1.6 1.6 0 0 0-.333.47 1.866 1.866 0 0 0-.166.6h3.055a1.846 1.846 0 0 0-.15-.607 1.527 1.527 0 0 0-.32-.47 1.424 1.424 0 0 0-1.014-.413Zm4.989-.458c.302-.003.602.055.882.17.265.11.502.278.693.493l-.336.35a1.856 1.856 0 0 0-.56-.389 1.683 1.683 0 0 0-.693-.138 1.636 1.636 0 0 0-.651.129 1.602 1.602 0 0 0-.872.903 1.958 1.958 0 0 0 0 1.376 1.593 1.593 0 0 0 .872.898c.206.088.427.132.651.13.241.002.48-.047.701-.146.21-.094.401-.224.565-.385l.323.354c-.193.213-.43.382-.695.492a2.383 2.383 0 0 1-1.763.002 2.062 2.062 0 0 1-1.144-1.16 2.455 2.455 0 0 1 0-1.75 2.055 2.055 0 0 1 1.144-1.161c.28-.114.58-.171.883-.168Zm3.131 1.87h.695L63.31 4.46h.654L61.93 6.475 64 8.731h-.658l-1.83-2.001h-.694V8.73h-.517V2.195h.517v4.067Z"/>
</svg>
