<svg xmlns="http://www.w3.org/2000/svg" width="30" height="10" fill="none">
  <path fill="#1A1F71" d="M21.68 1.016a5.914 5.914 0 0 0-2.105-.374c-2.322 0-3.956 1.21-3.97 2.945-.014 1.283 1.167 1.998 2.057 2.424.915.437 1.222.717 1.219 1.107-.006.598-.73.872-1.406.872-.94 0-1.44-.135-2.212-.468l-.302-.142-.328 1.997c.548.249 1.563.465 2.616.476 2.468 0 4.07-1.196 4.09-3.048.008-1.017-.618-1.788-1.973-2.425-.82-.413-1.324-.688-1.318-1.106 0-.371.425-.768 1.345-.768a4.194 4.194 0 0 1 1.757.343l.211.102.318-1.935ZM10.813 9.72 12.282.798h2.348l-1.469 8.924h-2.348Z"/>
  <path fill="#1A1F71" fill-rule="evenodd" d="M25.888.806h1.815l1.9 8.918h-2.18s-.215-1.026-.285-1.337l-1.653-.003h-.014l-1.34-.002c-.092.242-.494 1.342-.494 1.342H21.17l3.487-8.178c.247-.582.668-.74 1.231-.74Zm-.147 3.257s-.74 1.981-.935 2.494h1.95c-.093-.446-.544-2.576-.544-2.576l-.159-.77c-.062.178-.15.413-.217.591-.059.158-.101.272-.095.26Z" clip-rule="evenodd"/>
  <path fill="#1A1F71" d="M8.843.805 6.545 6.888l-.247-1.236-.823-4.1C5.333.986 4.921.818 4.411.799H.624L.593.984a9.66 9.66 0 0 1 2.467.978l2.088 7.75h2.485L11.331.804H8.843Z"/>
</svg>
