<?xml version="1.0" encoding="utf-8"?>
<!-- Generator: Adobe Illustrator 26.0.1, SVG Export Plug-In . SVG Version: 6.00 Build 0)  -->
<svg version="1.1" id="Layer_1" xmlns="http://www.w3.org/2000/svg" xmlns:xlink="http://www.w3.org/1999/xlink" x="0px" y="0px"
	 viewBox="0 0 1080 306.6" style="enable-background:new 0 0 1080 306.6;" xml:space="preserve">
<style type="text/css">
	.st0{fill:url(#SVGID_1_);}
	.st1{fill:url(#SVGID_00000132089351294775672020000008609033920852192678_);}
	.st2{fill:url(#SVGID_00000005266034809948140900000003084487820909430164_);}
	.st3{fill:url(#SVGID_00000137090424189845386170000005666821587692721303_);}
	.st4{fill:url(#SVGID_00000093166914376487479530000008207620779542510235_);}
</style>
<g>
	<linearGradient id="SVGID_1_" gradientUnits="userSpaceOnUse" x1="688.6843" y1="-2.0617" x2="688.6843" y2="148.5558">
		<stop  offset="0.1312" style="stop-color:#B17F2A"/>
		<stop  offset="0.1955" style="stop-color:#B68631"/>
		<stop  offset="0.2878" style="stop-color:#C29943"/>
		<stop  offset="0.3971" style="stop-color:#D7B861"/>
		<stop  offset="0.5161" style="stop-color:#F3E28A"/>
		<stop  offset="0.8861" style="stop-color:#B17F2A"/>
	</linearGradient>
	<path class="st0" d="M1017.32,135.3l0.09-122.1h-56.24v144.35h111.32V135.3H1017.32z M880.58,13.2h-59.16l16.72,36.43L785.1,157.64
		h24.56l10.59-23.12h56.93l10.69,23.12h63.42L880.58,13.2z M830.55,112.28l18.17-39.63l18.27,39.63H830.55z M760.57,13.2
		l-28.66,74.41L696.36,13.2h-61.49l48.95,103.65v40.7h59.07v-40.7L786.01,13.2H760.57z M628.3,55.02
		c-3.49-9.1-8.71-16.92-15.64-23.47c-6.93-6.53-15.57-11.62-25.93-15.24c-10.36-3.63-22.41-5.44-36.14-5.44
		c-13.73,0-25.77,1.81-36.13,5.44c-10.36,3.62-19.02,8.71-25.94,15.24c-6.93,6.55-12.15,14.36-15.64,23.47
		c-3.5,9.09-5.25,19.11-5.25,30.05c0,11.08,1.74,21.21,5.25,30.41c3.49,9.2,8.71,17.07,15.64,23.6
		c6.93,6.55,15.58,11.63,25.94,15.26c10.36,3.63,22.4,5.44,36.13,5.44c13.73,0,25.78-1.81,36.14-5.44
		c10.36-3.62,19-8.71,25.93-15.26c6.93-6.53,12.15-14.41,15.64-23.6c3.5-9.2,5.25-19.33,5.25-30.41
		C633.55,74.13,631.8,64.11,628.3,55.02z M572.94,113.06c-1.04,7.12-2.56,12.66-4.57,16.61c-2,3.95-4.49,6.6-7.48,7.97
		c-2.98,1.35-6.41,2.03-10.29,2.03s-7.33-0.68-10.35-2.03c-3-1.37-5.52-4.02-7.52-7.97c-2.02-3.95-3.53-9.5-4.57-16.61
		c-1.03-7.13-1.56-16.45-1.56-27.99c0-11.39,0.53-20.61,1.56-27.67c1.04-7.06,2.56-12.54,4.57-16.42c2-3.88,4.52-6.51,7.52-7.87
		c3.02-1.35,6.47-2.04,10.35-2.04s7.32,0.69,10.29,2.04c2.99,1.37,5.48,3.99,7.48,7.87c2.02,3.88,3.53,9.36,4.57,16.42
		c1.03,7.06,1.56,16.29,1.56,27.67C574.49,96.61,573.96,105.93,572.94,113.06z M428.92,97.9c7.9-3.88,13.85-9.1,17.87-15.68
		c4.02-6.57,6.02-14.11,6.02-22.59c0-6.87-1.35-13.15-4.07-18.84c-2.72-5.71-6.79-10.59-12.2-14.68c-5.4-4.07-12.13-7.25-20.19-9.52
		c-8.08-2.26-17.48-3.4-28.23-3.4h-83.24v144.35h56.15v-52.36h11.85l22.93,52.45h63.42L428.92,97.9z M391.81,71.73
		c-1.35,3.27-3.3,6.09-5.83,8.45c-2.52,2.37-5.6,4.19-9.22,5.48c-3.62,1.3-7.74,1.95-12.34,1.95h-3.4l0.09-53.22h3.3
		c4.6,0,8.71,0.65,12.34,1.93c3.62,1.3,6.71,3.12,9.22,5.49c2.53,2.37,4.48,5.18,5.83,8.45c1.37,3.27,2.04,6.84,2.04,10.73
		C393.85,64.88,393.18,68.45,391.81,71.73z"/>
	
		<linearGradient id="SVGID_00000037657824187249763450000005247959244169503873_" gradientUnits="userSpaceOnUse" x1="689.7798" y1="194.7356" x2="689.7798" y2="286.4063">
		<stop  offset="0.1312" style="stop-color:#B17F2A"/>
		<stop  offset="0.1664" style="stop-color:#B6862E"/>
		<stop  offset="0.2169" style="stop-color:#C3993A"/>
		<stop  offset="0.2765" style="stop-color:#D9B84C"/>
		<stop  offset="0.3333" style="stop-color:#F3DC62"/>
		<stop  offset="0.8861" style="stop-color:#B17F2A"/>
	</linearGradient>
	<path style="fill:url(#SVGID_00000037657824187249763450000005247959244169503873_);" d="M1058.55,199.99l-0.07,50.18l-59.74-50.18
		h-22.94v94.15h13.95v-49.99l59.81,49.99h22.94v-94.15H1058.55z M960.29,227.26c-2.27-5.92-5.68-11.04-10.2-15.3
		c-4.52-4.26-10.16-7.59-16.91-9.94c-6.76-2.37-14.62-3.56-23.58-3.56c-8.95,0-16.81,1.19-23.58,3.56
		c-6.75,2.35-12.39,5.68-16.91,9.94c-4.53,4.26-7.93,9.37-10.21,15.3c-2.27,5.94-3.41,12.47-3.41,19.61
		c0,7.22,1.14,13.84,3.41,19.83c2.29,6.01,5.68,11.13,10.21,15.41c4.52,4.26,10.16,7.57,16.91,9.94c6.76,2.37,14.62,3.54,23.58,3.54
		c8.95,0,16.81-1.18,23.58-3.54c6.75-2.37,12.39-5.68,16.91-9.94c4.52-4.27,7.93-9.4,10.2-15.41c2.29-5.99,3.42-12.61,3.42-19.83
		C963.71,239.73,962.58,233.2,960.29,227.26z M924.18,265.12c-0.68,4.65-1.66,8.26-2.98,10.83c-1.31,2.58-2.94,4.31-4.88,5.19
		c-1.93,0.89-4.18,1.34-6.71,1.34s-4.79-0.45-6.75-1.34c-1.96-0.88-3.6-2.61-4.91-5.19c-1.31-2.57-2.3-6.18-2.98-10.83
		c-0.68-4.64-1.01-10.73-1.01-18.25c0-7.44,0.34-13.46,1.01-18.06c0.68-4.6,1.66-8.17,2.98-10.71c1.31-2.53,2.95-4.25,4.91-5.13
		c1.96-0.89,4.22-1.33,6.75-1.33s4.77,0.43,6.71,1.33c1.95,0.88,3.57,2.6,4.88,5.13c1.31,2.54,2.3,6.11,2.98,10.71
		c0.68,4.6,1.01,10.62,1.01,18.06C925.19,254.4,924.85,260.48,924.18,265.12z M806.73,199.99v94.15h36.63l0.07-94.15H806.73z
		 M709.13,199.93v14.51h26.86v79.71h36.61v-79.71h26.88v-14.51H709.13z M666.89,199.99H628.3l10.9,23.75l-34.6,70.46h16.03
		l6.91-15.08h37.13l6.97,15.08h41.38L666.89,199.99z M634.25,264.62l11.85-25.86l11.92,25.86H634.25z M591.01,279.16
		c-3.04,0.73-6.09,1.11-9.13,1.11c-4.3,0-8.3-0.8-12-2.38c-3.71-1.58-6.88-3.83-9.58-6.71c-2.68-2.89-4.77-6.38-6.3-10.46
		c-1.51-4.08-2.27-8.63-2.27-13.66c0-5.07,0.77-9.64,2.31-13.72c1.53-4.07,3.65-7.55,6.36-10.43c2.71-2.87,5.92-5.09,9.63-6.64
		c3.72-1.57,7.75-2.35,12.11-2.35c3.25,0,6.38,0.39,9.41,1.18c3.02,0.78,5.71,1.74,8.08,2.88l5.45-10.65
		c-2.07-1.18-4.38-2.31-6.94-3.4c-2.56-1.07-5.33-2.03-8.33-2.84c-3-0.83-6.19-1.47-9.6-1.93c-3.39-0.47-6.95-0.7-10.67-0.7
		c-5.79,0-11.2,0.58-16.22,1.74c-5.03,1.16-9.63,2.8-13.78,4.91c-4.17,2.11-7.87,4.65-11.12,7.6c-3.26,2.96-6.01,6.24-8.24,9.82
		c-2.25,3.6-3.95,7.47-5.1,11.63c-1.16,4.15-1.74,8.48-1.74,12.96c0,6.67,1.3,12.96,3.9,18.84c2.6,5.9,6.33,11.05,11.19,15.46
		c4.86,4.42,10.75,7.9,17.71,10.46c6.95,2.56,14.76,3.84,23.41,3.84c3.72,0,7.26-0.23,10.64-0.7c3.38-0.46,6.55-1.11,9.5-1.93
		c2.96-0.82,5.71-1.76,8.24-2.81c2.54-1.05,4.84-2.19,6.91-3.42l-5.45-10.65C596.84,277.44,594.05,278.42,591.01,279.16z
		 M466.27,199.99h-38.59l10.9,23.75l-34.6,70.46h16.04l6.9-15.08h37.13l6.98,15.08h41.36L466.27,199.99z M433.65,264.62l11.85-25.86
		l11.9,25.86H433.65z M389.63,199.99l-20.41,60.5l-22.05-60.5h-40.1l36.25,94.09l29.84,0.07l33-94.22L389.63,199.99z"/>
	<g>
		<g>
			
				<linearGradient id="SVGID_00000154405624340339597730000014076696555453441203_" gradientUnits="userSpaceOnUse" x1="7.5094" y1="153.3354" x2="285.1165" y2="153.3354">
				<stop  offset="0.1312" style="stop-color:#B17F2A"/>
				<stop  offset="0.1664" style="stop-color:#B6862E"/>
				<stop  offset="0.2169" style="stop-color:#C3993A"/>
				<stop  offset="0.2765" style="stop-color:#D9B84C"/>
				<stop  offset="0.3333" style="stop-color:#F3DC62"/>
				<stop  offset="0.5161" style="stop-color:#F3E28A"/>
				<stop  offset="0.6613" style="stop-color:#F3DC62"/>
				<stop  offset="0.8861" style="stop-color:#B17F2A"/>
			</linearGradient>
			<path style="fill:url(#SVGID_00000154405624340339597730000014076696555453441203_);" d="M260.13,272.26H111.23l-8.18,21.94
				h182.07V83.79l-24.98,44.88V272.26z M106.56,34.42h153.57v20.51l24.98-42.46L94.31,12.48L7.51,153.34l58.73,95.32l10.52-24.77
				l-43.47-70.55L106.56,34.42z"/>
		</g>
	</g>
	<g>
		
			<linearGradient id="SVGID_00000078737597931115535600000013852619918181055620_" gradientUnits="userSpaceOnUse" x1="251.0602" y1="58.8933" x2="163.5371" y2="227.3752">
			<stop  offset="0.1312" style="stop-color:#B17F2A"/>
			<stop  offset="0.1664" style="stop-color:#B6862E"/>
			<stop  offset="0.2169" style="stop-color:#C3993A"/>
			<stop  offset="0.2765" style="stop-color:#D9B84C"/>
			<stop  offset="0.3333" style="stop-color:#F3DC62"/>
			<stop  offset="0.5161" style="stop-color:#F3E28A"/>
			<stop  offset="0.6613" style="stop-color:#F3DC62"/>
			<stop  offset="0.8861" style="stop-color:#B17F2A"/>
		</linearGradient>
		<path style="fill:url(#SVGID_00000078737597931115535600000013852619918181055620_);" d="M285.12,26.74v39.87L206.4,208.43
			l-8.12,14.62l-0.03,0.05l-0.05,0.09l-25.7-0.09l-3.67-0.01l-0.04-21.56c5.14-20.94-4.48-50.03,10.08-76.94l3.65,83.62l15.76-27.88
			l8.12-14.35L285.12,26.74z"/>
		
			<linearGradient id="SVGID_00000064332727013663740740000010882693999824571812_" gradientUnits="userSpaceOnUse" x1="183.4099" y1="116.4612" x2="52.1253" y2="282.755">
			<stop  offset="0.1312" style="stop-color:#B17F2A"/>
			<stop  offset="0.1664" style="stop-color:#B6862E"/>
			<stop  offset="0.2169" style="stop-color:#C3993A"/>
			<stop  offset="0.2765" style="stop-color:#D9B84C"/>
			<stop  offset="0.3333" style="stop-color:#F3DC62"/>
			<stop  offset="0.5161" style="stop-color:#F3E28A"/>
			<stop  offset="0.6613" style="stop-color:#F3DC62"/>
			<stop  offset="0.8861" style="stop-color:#B17F2A"/>
		</linearGradient>
		<path style="fill:url(#SVGID_00000064332727013663740740000010882693999824571812_);" d="M134.11,83.53
			c-8.43,0-15.3,1.52-21.99,4.91c-5.52,2.77-10.96,6.25-14.35,11.06c-2.87,4.07-6.72,10.75-8.58,15.34
			c-1.93,4.8-2.92,10.18-2.92,16.05c0,7.33,1.41,13.61,4.26,19.13c2.76,5.27,6.75,9.36,12.2,12.51l7.14,4.13l-37.46,93.65
			l21.91,33.89l46.83-125.35h26.15v0.3h-0.01v53.96h31V83.53H134.11z M141.86,162.84c-7.01,0-10.64-2.41-12.71-4.41
			c-3.26-3.15-5.42-7.34-7.06-11.92c-1.51-4.35-2.29-9.13-2.29-14.2c0-5.03,0.77-9.79,2.31-14.23c1.62-4.56,3.99-8.56,7.01-11.84
			c3.1-3.42,6.93-6.13,11.44-8.05c4.31-1.8,9.18-2.71,14.46-2.71h12.15l0.11,67.35H141.86z"/>
	</g>
</g>
</svg>
